<?xml version="1.0" encoding="utf-8"?>
<!-- Generator: Adobe Illustrator 27.2.0, SVG Export Plug-In . SVG Version: 6.00 Build 0)  -->
<svg version="1.1" id="Capa_1" xmlns="http://www.w3.org/2000/svg" xmlns:xlink="http://www.w3.org/1999/xlink" x="0px" y="0px"
	 viewBox="0 0 574.61 664.13" style="enable-background:new 0 0 574.61 664.13;" xml:space="preserve">
<style type="text/css">
	.st0{fill:#8A3D16;}
	.st1{fill:#F8F098;}
</style>
<g>
	<path class="st0" d="M303.92,664.12c-17.52,0.06-34.65-0.94-51.48-5.05c-42.47-10.37-79.22-30.88-110.2-61.79
		c-17.77-17.73-32.74-37.47-43.58-60.14c-6.58-13.76-11.98-28.07-14.18-43.25c-2.32-16.03-1.89-32,1.35-48.02
		c3.05-15.09,11.8-27.22,18.79-40.31c0.51-0.95,2.18-1.49,1.45-2.83c-0.66-1.22-2.13-0.59-3.19-0.55
		c-15.49,0.55-30.48-1.75-44.65-8.15c-14.49-6.54-25.41-17.12-35.75-29.19c-9.98-11.65-15.21-24.97-19.03-39.04
		c-6.34-23.41-4.18-46.05,8.39-67.34c6.68-11.31,16.54-18.41,28.43-23.26c14.16-5.77,29.03-5.2,43.85-5.16
		c1.58,0,3.88,0.79,4.52-0.64c0.63-1.41-1.38-2.76-2.42-3.98c-5.27-6.2-10-13.15-12.49-20.57c-4.09-12.19-4.71-24.81-0.95-37.84
		c2.93-10.13,7.18-19.05,13.8-27c9.14-10.99,20.35-18.81,34.29-22.75c7.81-2.21,15.6-3.47,23.72-4.26
		c13.96-1.37,26.59,2.23,39.02,7.35c6.65,2.73,11.59,8.01,16.25,13.41c0.56,0.65,0.81,2.1,2.04,1.58c0.38-0.16,0.38-1.49,0.37-2.28
		c-0.07-11.51,2.65-22.52,6.08-33.37c6.89-21.75,18.83-40.28,35.46-55.91c8.62-8.1,18.57-14.23,28.28-20.8
		c10.53-7.12,22.44-10.71,34.16-15.01c21.81-8.01,44.3-9.36,67-6.75c21.16,2.43,40.97,9.48,59.04,20.99
		c12.75,8.13,23.94,17.91,34.25,29.09c8.39,9.11,15.01,19.35,20.59,29.93c6.68,12.67,11.57,26.39,13.27,41.01
		c0.81,7.03,2.29,14.02,1.81,21.08c-1.49,21.79-6.52,42.49-18.69,61.11c-2.52,3.86-5.69,7.12-8.18,10.94
		c-0.65,1-2.43,1.71-1.72,3.03c0.7,1.31,2.43,0.66,3.72,0.68c7.12,0.13,14.2-0.19,21.33,1.18c8.72,1.67,16.71,5.05,24.22,9.31
		c27.77,15.75,44.34,40,49.88,71.05c4.77,26.7,0.56,52.16-16.41,74.41c-12.13,15.9-28.43,24.92-47.76,29.17
		c-9.81,2.16-19.67,1.98-29.57,1.92c-1.11-0.01-2.8-0.23-3.2,0.35c-0.6,0.88,0.52,2,1.15,2.94c8.7,12.93,15.26,27.1,19.25,41.94
		c3.61,13.42,5.88,27.41,5.17,41.63c-0.13,2.58-3.75,4.01-2.05,5.86c2.59,2.83,0.9,5.41,0.69,8.06
		c-1.09,14.05-5.73,27.1-11.19,39.96c-8.03,18.93-20.88,34.46-34.36,49.58c-19.53,21.92-43.4,37.71-69.78,50.21
		c-18.01,8.53-37.15,12.1-56.46,15.84C319.94,664.1,311.83,663.51,303.92,664.12z M353.99,20.85c-9.31,0.26-18.37,0.22-27.35,2.27
		c-39.79,9.1-71.55,29.65-93.01,64.91c-8.12,13.35-13.79,27.88-15.16,43.39c-2,22.59,2.44,44.5,10.25,65.73
		c0.56,1.52,1.53,2.96,1.26,4.71c-1.67-0.84-2.29-2.53-3.17-4c-9.11-15.31-18.49-30.38-30.75-43.5
		c-11.4-12.2-24.68-19.04-41.83-18.47c-9.95,0.33-19.22,3.04-28.66,5.36c-10.69,2.62-19.44,8.1-25.06,17.81
		c-4.57,7.89-6.59,16.49-7.32,25.61c-1.33,16.64,6.28,29.4,16.75,41.09c6.99,7.81,14.06,15.55,21.08,23.33
		c0.43,0.47,1.13,1.22,0.99,1.57c-0.37,0.97-1.42,0.54-2.13,0.42c-6.23-1.07-12.6-1.23-18.79-2.18
		c-14.21-2.18-28.36-2.16-42.52-0.45c-6.4,0.77-12.8,1.98-18.79,4.68c-21.68,9.77-35.34,34.89-30.61,60.12
		c3.92,20.88,13.23,38.23,30.55,50.98c15.48,11.4,33.05,17.01,52,17.75c17.66,0.69,34.98-2.5,51.97-7.29
		c0.96-0.27,2.24-1.02,2.78-0.23c0.63,0.93-0.73,1.61-1.35,2.32c-7.05,7.99-14.01,16.06-21.16,23.95
		c-14.98,16.52-24.74,35.9-29.36,57.47c-2.99,13.98-2.45,28.39,1.12,42.49c4.96,19.58,13.87,37.21,25.68,53.53
		c20.08,27.74,45.25,49.48,75.73,65.07c27.22,13.93,56.25,21.26,86.6,23.76c11.14,0.92,22.19-0.81,33.12-2.28
		c30.89-4.15,58.82-16.07,84.12-34.21c24.03-17.23,44.12-38.11,57.47-64.65c10.46-20.79,15.19-42.7,12-66.4
		c-3.06-22.7-9.6-44.06-20.47-64c-6.51-11.95-14.41-23.14-21.66-34.69c-0.4-0.64-0.54-1.46-0.8-2.19c0.72,0.26,1.47,0.46,2.16,0.79
		c5.89,2.8,11.17,6.82,17.56,8.66c13.91,4.02,28.03,3.44,41.88,0.65c15.73-3.18,30.29-9.29,40.31-22.83
		c11.06-14.93,13.27-31.88,11.96-49.97c-1-13.86-5.09-26.5-12.56-37.87c-14.2-21.63-33.45-34.73-60.49-33.96
		c-13.74,0.39-27.34,2.12-41,3.27c-1.28,0.11-3.07,1.26-3.72,0.16c-0.84-1.44,1.11-2.57,1.89-3.72
		c9.26-13.55,18.63-27.03,27.98-40.52c7.8-11.26,13.55-23.51,16.78-36.79c2.44-10.04,2.32-20.17,1.22-30.58
		c-1.26-11.9-3.68-23.3-8.85-33.93C448.56,48.46,409.03,22.58,353.99,20.85z"/>
	<path class="st1" d="M353.99,20.85c55.04,1.73,94.57,27.61,118.66,77.13c5.17,10.63,7.59,22.03,8.85,33.93
		c1.1,10.41,1.22,20.54-1.22,30.58c-3.23,13.28-8.98,25.53-16.78,36.79c-9.35,13.49-18.71,26.97-27.98,40.52
		c-0.78,1.15-2.74,2.28-1.89,3.72c0.64,1.09,2.44-0.05,3.72-0.16c13.66-1.16,27.26-2.88,41-3.27c27.04-0.77,46.29,12.33,60.49,33.96
		c7.47,11.37,11.56,24.01,12.56,37.87c1.31,18.09-0.9,35.04-11.96,49.97c-10.03,13.54-24.59,19.65-40.31,22.83
		c-13.85,2.8-27.97,3.37-41.88-0.65c-6.39-1.84-11.66-5.86-17.56-8.66c-0.69-0.33-1.44-0.53-2.16-0.79c0.26,0.74,0.39,1.55,0.8,2.19
		c7.25,11.55,15.14,22.74,21.66,34.69c10.87,19.94,17.41,41.3,20.47,64c3.19,23.7-1.54,45.61-12,66.4
		c-13.36,26.54-33.45,47.42-57.47,64.65c-25.3,18.14-53.23,30.06-84.12,34.21c-10.93,1.47-21.98,3.2-33.12,2.28
		c-30.35-2.5-59.38-9.83-86.6-23.76c-30.48-15.6-55.66-37.33-75.73-65.07c-11.81-16.32-20.72-33.95-25.68-53.53
		c-3.57-14.1-4.11-28.51-1.12-42.49c4.62-21.57,14.38-40.95,29.36-57.47c7.15-7.89,14.12-15.96,21.16-23.95
		c0.62-0.7,1.98-1.39,1.35-2.32c-0.54-0.79-1.82-0.04-2.78,0.23c-16.99,4.8-34.3,7.99-51.97,7.29c-18.95-0.74-36.52-6.35-52-17.75
		c-17.31-12.75-26.63-30.1-30.55-50.98c-4.74-25.23,8.93-50.35,30.61-60.12c5.99-2.7,12.39-3.91,18.79-4.68
		c14.16-1.7,28.3-1.73,42.52,0.45c6.19,0.95,12.56,1.1,18.79,2.18c0.71,0.12,1.76,0.55,2.13-0.42c0.13-0.35-0.57-1.1-0.99-1.57
		c-7.02-7.78-14.09-15.53-21.08-23.33c-10.47-11.69-18.08-24.45-16.75-41.09c0.73-9.12,2.75-17.72,7.32-25.61
		c5.62-9.71,14.38-15.18,25.06-17.81c9.45-2.32,18.71-5.03,28.66-5.36c17.16-0.57,30.44,6.28,41.83,18.47
		c12.26,13.12,21.65,28.19,30.75,43.5c0.87,1.47,1.49,3.16,3.17,4c0.27-1.75-0.7-3.19-1.26-4.71
		c-7.81-21.23-12.25-43.14-10.25-65.73c1.38-15.5,7.04-30.04,15.16-43.39c21.45-35.26,53.22-55.82,93.01-64.91
		C335.62,21.07,344.68,21.11,353.99,20.85z M411.2,68.24l0.14,0.06l-0.19-0.11c-0.12-0.64-0.1-1.35-0.39-1.9
		c-16.65-31.66-57.11-42.12-86.96-22.34c-8.25,5.47-15,12.54-19.6,21.43c-0.27,0.52-1.6,1.13-0.36,1.86
		c0.28,0.17,1.14-0.48,1.63-0.87c3.11-2.47,6.12-5.07,9.31-7.44c13.63-10.12,28.04-17.33,45.95-16.01
		c9.77,0.72,18.47,3.41,26.93,7.85C396.42,55.38,403.64,62.05,411.2,68.24z M362.41,213.28c-2.09-0.96-2.41,1.15-3.21,2.04
		c-10.21,11.4-20.89,22.32-32.49,32.34c-13.78,11.9-28.45,21.95-47.18,24.08c-10.92,1.24-21.63,1.2-31.1-5.66
		c-0.95-0.69-1.73-2.67-3.01-1.61c-0.95,0.78,0.19,2.43,0.51,3.7c3.18,12.65,1.91,24.42-7.34,34.39
		c-4.78,5.16-10.35,9.33-16.57,12.69c-9.14,4.94-18.97,7.96-28.9,10.74c-0.56,0.16-1.4-0.11-1.63,0.79
		c0.59,0.11,1.17,0.32,1.76,0.31c5.51-0.08,10.97,0.23,16.32,1.67c18.28,4.91,32.62,16.34,46.11,28.76
		c14.99,13.8,22.48,31.79,26.41,51.45c0.16,0.82-0.41,2.04,0.75,2.3c0.23,0.05,1.08-1.57,1.25-2.49c0.82-4.4,1.26-8.89,2.29-13.24
		c6.49-27.36,22.01-46.76,49.28-55.91c12.81-4.3,25.92-4.12,39.12-3.57c0.81,0.03,1.63-0.07,2.44-0.11
		c-0.25-1.33-1.54-1.05-2.33-1.33c-13.31-4.6-24.5-11.96-31.58-24.5c-9.11-16.14-8.48-33.02-3.64-50.25
		c4.76-16.93,13.09-32.08,22.61-46.68c0.54-0.74,1.08-1.48,1.62-2.22c-0.21-0.12-0.56-0.39-0.6-0.34
		C362.63,211.38,361.4,211.95,362.41,213.28z M301.28,627.05c3.83,0,7.72,0.44,11.48-0.07c25.76-3.47,48.72-13.54,68.79-30.05
		c2.28-1.88,5.28-3.27,6.17-6.54c-3.13,0.09-5.41,2.21-8.03,3.45c-28.34,13.42-57.7,21.73-89.48,18.29
		c-19.37-2.1-37.7-7.59-55.08-16.42c-11.14-5.67-21.65-12.3-31.64-19.78c-0.67-0.5-1.25-1.06-2.16-0.7c0.33,0.52,0.62,1.08,1,1.57
		C227.5,608.93,260.09,626.49,301.28,627.05z"/>
	<path class="st0" d="M362.32,213.22c-9.53,14.59-17.85,29.75-22.61,46.67c-4.85,17.23-5.47,34.11,3.64,50.25
		c7.08,12.54,18.27,19.9,31.58,24.5c0.79,0.27,2.08-0.01,2.33,1.33c-0.81,0.04-1.63,0.14-2.44,0.11
		c-13.2-0.54-26.31-0.72-39.12,3.57c-27.28,9.15-42.8,28.54-49.28,55.91c-1.03,4.35-1.47,8.84-2.29,13.24
		c-0.17,0.92-1.01,2.54-1.25,2.49c-1.16-0.26-0.59-1.49-0.75-2.3c-3.93-19.66-11.43-37.66-26.41-51.45
		c-13.49-12.42-27.83-23.85-46.11-28.76c-5.35-1.44-10.81-1.75-16.32-1.67c-0.58,0.01-1.17-0.2-1.76-0.31
		c0.23-0.9,1.07-0.63,1.63-0.79c9.93-2.78,19.75-5.79,28.9-10.74c6.22-3.36,11.78-7.54,16.57-12.69
		c9.24-9.97,10.52-21.74,7.34-34.39c-0.32-1.27-1.46-2.92-0.51-3.7c1.28-1.06,2.06,0.93,3.01,1.61c9.47,6.86,20.17,6.9,31.1,5.66
		c18.73-2.13,33.4-12.18,47.18-24.08c11.6-10.02,22.27-20.94,32.49-32.34c0.8-0.89,1.12-3,3.21-2.04L362.32,213.22z"/>
	<path class="st0" d="M301.28,627.05c-41.2-0.56-73.78-18.12-98.94-50.27c-0.38-0.49-0.67-1.04-1-1.57c0.91-0.36,1.5,0.2,2.16,0.7
		c9.99,7.49,20.5,14.12,31.64,19.78c17.38,8.84,35.7,14.33,55.08,16.42c31.79,3.44,61.14-4.87,89.48-18.29
		c2.62-1.24,4.9-3.36,8.03-3.45c-0.89,3.27-3.89,4.67-6.17,6.54c-20.07,16.51-43.03,26.58-68.79,30.05
		C309,627.48,305.11,627.05,301.28,627.05z"/>
	<path class="st0" d="M411.21,68.25c-7.57-6.2-14.78-12.87-23.55-17.47c-8.46-4.43-17.16-7.13-26.93-7.85
		c-17.9-1.32-32.32,5.88-45.95,16.01c-3.19,2.37-6.2,4.97-9.31,7.44c-0.49,0.39-1.35,1.03-1.63,0.87c-1.23-0.73,0.09-1.33,0.36-1.86
		c4.6-8.9,11.35-15.97,19.6-21.43c29.85-19.78,70.31-9.31,86.96,22.34c0.29,0.55,0.27,1.26,0.39,1.9L411.21,68.25z"/>
	<path class="st0" d="M362.41,213.28c-1.01-1.33,0.21-1.9,0.92-2.63c0.04-0.04,0.39,0.22,0.6,0.34c-0.54,0.74-1.08,1.48-1.61,2.22
		C362.32,213.22,362.41,213.28,362.41,213.28z"/>
	<polygon class="st0" points="411.16,68.2 411.34,68.31 411.2,68.25 	"/>
</g>
</svg>
